<svg id="Слой_4" data-name="Слой 4" xmlns="http://www.w3.org/2000/svg" viewBox="0 0 500 500"><defs><style>.cls-1{fill:#d75f00;}.cls-2{fill:#0b7300;}</style></defs><title>BitGanja_logo</title><path class="cls-1" d="M407.19,283.65a158.25,158.25,0,0,1-.86,16.47c0,.19,0,.39-.07.58L395,310.05l-.68-5L388.68,309l.1-.57A141.26,141.26,0,0,0,391,283.65c0-.27,0-.54,0-.81s0-.5,0-.75l.39-.63-.4-.18c0-.15,0-.3,0-.44s0-.55,0-.82,0-.3,0-.45l12.74-6.76-5.58-4.34c1.05-.59,2.23-1.12,3.49-1.68,1.44-.64,3-1.34,4.48-2.2l.05.44A158.06,158.06,0,0,1,407.19,283.65ZM289.52,148.33l.39.12q3.14.93,6.21,2l.79.28a141.47,141.47,0,0,1,60.21,41.4l.3.35.87-2.15,5.44,6.92,5.76-15.61-.3-.36a157.42,157.42,0,0,0-81.38-50.21l-.39-.1-1.22,5,8-2ZM380.64,371l.24-.37h-.46Zm-11.4,7.27-5.1,1a39.17,39.17,0,0,1-8.08.74l5.2,4.16-11.91-.55-.4.39a142,142,0,0,1-19.25,15.91l-.61.42-.47,1.16c.8.18,1.63.38,2.5.64l6,1.81-.78.89,9.06,2.2-1.62,1.47,1.37.22.44-.34a158.52,158.52,0,0,0,32.7-34l.29-.42-11.16.69ZM177.77,404.65q-3.29-2-6.47-4.11A142.09,142.09,0,0,1,146,378.71q-1.69-1.85-3.31-3.75l-.08-.1q-2-2.33-3.87-4.74-.73-.93-1.44-1.87-1.12-1.49-2.21-3a140.25,140.25,0,0,1-23.89-56.84q-.54-3-.94-6.08A141.62,141.62,0,0,1,109,283.65c0-.82,0-1.64,0-2.47,0-.66,0-1.32,0-2q.05-1.73.15-3.44c.09-1.62.21-3.23.36-4.83A140.16,140.16,0,0,1,136,200.79q4-5.52,8.56-10.63a141.2,141.2,0,0,1,68.17-42.47l.39-.11-4.56-13.84,8.14,2.21-1.35-5.64-.4.09a157.3,157.3,0,0,0-82.13,48.55q-1.7,1.9-3.35,3.86-1.37,1.63-2.69,3.29-.91,1.14-1.79,2.3A156.64,156.64,0,0,0,97,247.68c-.21.91-.41,1.82-.61,2.73s-.34,1.6-.5,2.4q-.52,2.62-1,5.26a157.6,157.6,0,0,0-2.09,25.58c0,3.56.13,7.09.36,10.59q.41,6.19,1.3,12.24A156,156,0,0,0,111,356.89q2.34,4.42,4.94,8.67.75,1.23,1.53,2.44l.41.64a158.46,158.46,0,0,0,36.84,39.9q2.29,1.75,4.64,3.42A157.47,157.47,0,0,0,178,423.37c0-.6,0-1.2,0-1.81a72.2,72.2,0,0,1,1.75-15.75Zm119.3,7.56c.17.86.31,1.73.44,2.6h0c.07.49.13,1,.19,1.48a47.91,47.91,0,0,1-.64,14.72h0l0,.11h0c-.08.39-.18.78-.27,1.18s-.24,1-.37,1.54q-.51,1.94-1.18,3.82l-.32.86c-.39,1-.82,2.06-1.29,3.06-.18.4-.37.8-.56,1.19a48,48,0,0,1-85.71.74q-1.07-2.07-1.93-4.25c-.1-.25-.2-.5-.29-.75l0,0A47.81,47.81,0,0,1,202,421.57q0-2.45.24-4.83c0-.15,0-.29.05-.44q.23-2.07.62-4.08a48.07,48.07,0,0,1,31.46-36q1.16-.4,2.35-.74c1.36-.39,2.75-.73,4.16-1s2.63-.45,4-.6a47.31,47.31,0,0,1,11.43.15h0l.48.06h0a47.65,47.65,0,0,1,8.67,2.07h0l1.25.43h0a47.84,47.84,0,0,1,10.37,5.38h0a48,48,0,0,1,20,30.27Zm-19.73,30.35a15,15,0,0,0,2.2-4.52,19.72,19.72,0,0,0,.64-2.86c0-.33.07-.67.11-1a27.3,27.3,0,0,0,.15-2.76,12.15,12.15,0,0,0-4-9.31,15.74,15.74,0,0,0-5.38-3.18c-.54-.19-.88-.27-.88-.27a12.74,12.74,0,0,0,6.31-13.13c-1-7.22-8.66-10.44-15.77-11.53-.9-.14-1.8-.25-2.67-.32v-3.37h0v-8.9H250.5v6.73h0v5.38h-5.05V381.41h-7.58V390h0v3.49H222.72v7.83h5.68c2.53,0,3.79.76,3.79,2.78v33.59a5.07,5.07,0,0,1-.37,2,2.59,2.59,0,0,1-2.53,1.62h-5.81l0,1.3-.21,6.66h14.65v12.38h7.58V449.35h5.05v12.38h7.58V449.35h1.64C268.78,449.35,274.3,446.76,277.34,442.56Zm-19.79-17.91-.4-.05c-.54-.06-1-.1-1.43-.12H245.45v16.17h8.34c8.08,0,12-3.29,12-9.35C265.79,426.63,260.86,425.11,257.55,424.65Zm-8.78-7.95h-3.32V401.87h5.43a26.71,26.71,0,0,1,3.53.22,14.09,14.09,0,0,1,4,1.11l.41.2a5.66,5.66,0,0,1,3.26,5.29,7.6,7.6,0,0,1-3.73,7l-.42.23a8,8,0,0,1-2.49.78h-6.71Zm.13-.77c.36-2.39.66-4.76.91-7.07C249.56,411.18,249.26,413.55,248.9,415.94Zm66.72-7.57a67.23,67.23,0,0,1,1.31,13.2c0,1.22,0,2.43-.1,3.64,0,.24,0,.48-.05.72-.08,1.29-.21,2.57-.36,3.83l-.06.45-.05.42a66.92,66.92,0,0,1-132.14,3q-.27-1.47-.47-3t-.35-3.15q-.07-.77-.12-1.54c-.09-1.44-.16-2.89-.16-4.36a67.24,67.24,0,0,1,1.31-13.2c.28-1.38.6-2.74,1-4.08s.83-2.88,1.31-4.29a66.39,66.39,0,0,1,8.1-16.2c1-1.4,2-2.75,3-4.07a67.24,67.24,0,0,1,17.89-15.61q2.32-1.39,4.76-2.59a66.42,66.42,0,0,1,16-5.51c.85-.18,1.72-.32,2.58-.46l.52-.09a67,67,0,0,1,23.09.39q1.56.3,3.09.67l-.31.6.31-.6a66.49,66.49,0,0,1,17.72,7.09l-1.87,1.2,1.87-1.2c1.4.81,2.77,1.65,4.11,2.56l-.44.24.44-.24a67.29,67.29,0,0,1,16.94,16.58l-1.91,0-5.2-.13A61.68,61.68,0,0,0,282,369.18c-1.24-.76-2.51-1.46-3.8-2.13l1.13-.75-1.13.75a60.91,60.91,0,0,0-15.1-5.45c-.88-.19-1.76-.36-2.65-.51a61.06,61.06,0,0,0-19.39-.24c-.6.09-1.19.19-1.78.3l-.58.1a60.92,60.92,0,0,0-12.92,3.92q-2.46,1.06-4.81,2.32a61.62,61.62,0,0,0-16.58,13q-1.78,2-3.39,4.1c-1,1.28-1.88,2.61-2.75,4q-.82,1.28-1.57,2.6c-.2.34-.4.68-.59,1-.87,1.59-1.66,3.23-2.38,4.9q-.23.53-.46,1.07c-.16.38-.31.77-.46,1.16a60.87,60.87,0,0,0-2.38,7.52c-.33,1.35-.61,2.71-.85,4.09a61.68,61.68,0,0,0-.93,10.59c0,1,0,1.93.07,2.89.06,1.37.18,2.73.33,4.07s.37,2.79.62,4.16c0,.17.06.34.09.51a61.37,61.37,0,0,0,120.52,0c.22-1.17.41-2.35.57-3.54l.07-.54c0-.2.05-.4.08-.59.19-1.7.31-3.42.36-5.15l.47.56.76-1.07.2-.28h0l-.2.28-.76,1.07-.47-.56c0-.6,0-1.2,0-1.81a61.7,61.7,0,0,0-.93-10.59c-.24-1.38-.52-2.74-.85-4.09a59.39,59.39,0,0,0-6.2-15.57l-.26-.46c-.32-.56-.65-1.11-1-1.66l-.25-.38c-.24-.38-.48-.76-.72-1.13l-.26-.41-.11-.15-.29-.41c-1-1.42-2-2.81-3.11-4.14l5.2.13,1.91,0c1,1.34,1.88,2.71,2.74,4.12l.24.41q1.27,2.13,2.38,4.36l.22.43a66.5,66.5,0,0,1,3.34,8.11l-2-.12h0l2,.12c.46,1.35.88,2.72,1.25,4.11S315.35,407,315.62,408.37Zm-3.87-10.26a.84.84,0,0,0,0,.15.84.84,0,0,1,0-.15Z"/><path class="cls-2" d="M178.3,428c.08.86.17,1.71.28,2.55L178,431l-.19-1.89-7.18,5.35-.55-3.12-5.92,5.23-.35-2.59-6.2,4.76c-.11-1.05-.18-1.72-.32-3.08l-7,5.4c0-1.41,0-2.25,0-3.42L142.67,442c-.06-.81-.1-1.42-.16-2.25l-5.75,3.21-.46-2.17c-7.52,2-11.62,2.13-19.45,4.27,2.87-1.74,3.92-2,6.42-3.82,2.15-1.57,3.33-2.73,5.47-4.31a17.45,17.45,0,0,1,4.07-2.63l-2.09-1.89,6.36-2.4-2.21-1.36,8.53-3.2-2.79-2,8.19-2.25-1.91-1.89,7.9-1.83-2.31-1.7,4.21-.71A161.47,161.47,0,0,0,178.3,428Zm11.45-83.17-2.38,4.86c-5.58-5.23-11.25-9-17-14.37-.08,2.57.44,3.28-.76,5,.08,0,.16,0,0,0s-.08,0,0,0c-1.17-1.67-9.78-9.2-10.9-10.79-.37.55-2.44,2-3,2.8l-9.42-9.62-1.58,3.54c-2.85-3-6.21-5.21-8.85-8l-1.74,2.53C130,318.3,127,315.48,122.88,313l-.77,2.94L116,311.69a136.49,136.49,0,0,0,28.2,58.73,48.68,48.68,0,0,1,9.92.65c-1.41,1.13-1,1.28-3.07,2.94,8.08-.37,13.35.16,20.34-.16l-.47,2.34c5.36.31,10.18-.58,15.54,1.29a39.19,39.19,0,0,0,5.61,1.35A72.37,72.37,0,0,1,211,361.07C202.18,355.29,193.68,349.28,189.75,344.88ZM84.94,299.56,84,304.21l-12.72-8.43c0,2.3,0,4,0,5.9l-14.62-7.83c.1,1.6.17,2.81.27,4.46L46,292.49l-.7,4.89c-3.5-1.65-5.46-1.77-8.75-2.51-4.91-1.12-8.09-1.4-13-2.52-5.71-1.3-7.29-2.42-13.27-4.31,12.14,8.09,16.83,13.46,28.49,21.23l-3,3,11.55,4.11-3.43,2.72,15.54,5.4-5.54,3.74,16.47,3.35-4.6,3.85,14.55,3-3.77,3.35,15,2.09-4.39,4.2,16.59,3.63-2.82,2.35,4.74,1.32a160,160,0,0,1-15.69-52.22Zm131-1.45-6.74,4.56c-3-10.46-7.36-19.1-10.49-29.85-2.15,3.28-2,4.54-4.95,5.92.11,0,.22.08,0,0s-.11,0,0,0c-.18-2.93-5.31-18.38-5.49-21.19-.92.46-4.75,1-6.11,1.63l-4.51-18.7L172.78,244c-1.3-5.76-3.88-10.86-5.08-16.18L163.43,230c-3.32-6-5-11.67-8.32-17.58l-3.34,3.3-8.43-17.76a136.24,136.24,0,0,0-29.83,75l8.2,4.2-5.48,3.14,17.13,10.24c-1.38,1-5.16,4.19-5.63,4.51,6.32,5.37,15.23,7.94,21.42,13.19-2.72.52-2.31,1-6.32,1.76,10.75,4.88,17.13,9.06,26.44,13.29L166.79,326c6.68,4,13.63,6,19.06,12,5.19,5.69,18,13.06,29.66,20.41a71.51,71.51,0,0,1,19-7.09c-7.16-17.42-15.45-39.68-18-52ZM43,153.7l11.66,13-6.61,1.24,15.78,17.3L53.7,186.37l18.63,15.25-9,1.93,16.43,13.52L72.2,218.9l17.71,12.65-9,2.52,12.63,10.69a160.79,160.79,0,0,1,29.66-60.57l-6.4-14.34-4.88,5.4-9.72-19.34-4.75,7.61L84.75,143.69l-3.2,5.95-9.5-14.77-4.81,5.85c-3.21-4.45-5.65-5.9-9.31-9-5.47-4.7-9.35-7.18-14.81-11.89-6.35-5.47-7.5-8-13.72-14.38,9.24,18.52,11,28.57,19.9,46.35Zm443.7,140.8-1.58.57-1.46.54-1.4.51a48.34,48.34,0,0,1-5.84,1.68l-2,.44c-2.15.44-4,.74-6,1.09l-1.56.29c-1.07.2-2.19.43-3.41.71-.82.19-1.56.33-2.26.47l-1,.21a23,23,0,0,0-5.46,1.82h0l-.34-2.35L454,298l-5.43,2.89-5.5,2.92h0c.08-1.23.14-2.23.2-3.32l.07-1.14h0l-3.69,2L436,303.22l-3.62,1.94-3.69,2h0c0-.48,0-1,0-1.42,0-.93,0-1.85,0-2.87,0-.51,0-1,0-1.62h0l-3.21,2.13L416,309.67h0l-.18-.93-.38-1.94-.31-1.58,0-.2-5.86,4.25-1.18.85L405,312.34l-.48.35-1.16.84c0-.9-.06-1.66-.08-2.42l-.09-2.56-2.87,2.38-6.17,5.13L392,317.85l-.16-1.14-.42-3.12-.19-1.42-3.71,2.57-5,3.48-4.6,3.19-.77-2.94-.53.34c-1.31.83-2.54,1.69-3.73,2.56l-1.35,1-1.73,1.27c-1,.7-2,1.39-3,2.06l-.92.58-1.74-2.53c-.66.69-1.36,1.35-2.09,2s-1.49,1.27-2.25,1.91a53.15,53.15,0,0,0-4.51,4.07l-.4-.9-.38-.85-.8-1.79-2.35,2.4-4.73,4.83-2.34,2.39a24,24,0,0,0-2.62-2.4,2.85,2.85,0,0,1-.37-.39h0a37,37,0,0,1-3.31,3.37l-3,2.85-1.74,1.65c-.82.78-1.54,1.49-2.06,2a8.92,8.92,0,0,0-.76.88h0a5.77,5.77,0,0,1-.38-.59,3.32,3.32,0,0,1-.37-1,5.29,5.29,0,0,1-.05-1.07c0-.2,0-.42,0-.66,0-.45,0-1,0-1.6l-.2.18c-3.52,3.27-7,6-10.47,8.76-1.41,1.14-2.82,2.3-4.22,3.53q-1.05.92-2.1,1.9L312,354l-1-2-.5-1-.31-.64a30.65,30.65,0,0,1-2.69,2.63,75.55,75.55,0,0,1-7.57,5.69c-2.35,1.58-4.91,3.17-7.58,4.74a72.36,72.36,0,0,1,18.31,19.5l1.93,0,.91,0c.72,0,1.41,0,2.09,0,2-.05,3.8-.24,5.6-.45s3.86-.5,5.87-.68c.65-.06,1.3-.11,2-.15l-.23-1.16-.24-1.18h0c1.75.08,3.39.11,5,.11,2.41,0,4.73-.06,7.21-.08,2.12,0,4.39,0,6.89.09l1.25,0-.67-.56,0,0-.44-.41h0l-.31-.32c-.27-.29-.45-.52-.68-.77a6.36,6.36,0,0,0-.47-.47l-.45-.38A28.77,28.77,0,0,1,351,376c1.82-.07,3.67-.06,5.51-.09a33.78,33.78,0,0,0,6.74-.64c-.1-.21-.54-1.47-1-2.63-.15-.4-.29-.77-.43-1.1s-.19-.47-.27-.62h0l13.77-.85-1-1.67-1.09-1.83h12.66l-.53-1.39-.41-1.07-.21-.55h0l.64-.18,5.57-1.55.1,0,5.14-1.43,2.87-.8h0l-.81-.67-.73-.6-1.29-1.08,16.59-3.63-2.15-2.05-2.25-2.15,15-2.09-2.28-2-1.49-1.32h0l3.05-.63L424,343l10.26-2.11-1.61-1.35-1.06-.88-1.93-1.62h0l6.14-1.25,3.69-.75,2.39-.49,4.25-.86-4.19-2.83-1.35-.91,7.75-2.7,7.78-2.71h0l-.88-.7-.83-.65-1.72-1.37,5.77-2.05,5.78-2.06-.84-.85-1.5-1.52-.64-.65c1.46-1,2.81-1.91,4.07-2.81,2.89-2.07,5.35-4,7.74-5.88l2.25-1.8c4.15-3.32,8.36-6.69,14.42-10.74h0C488.59,293.85,487.61,294.19,486.73,294.5ZM372.33,437.2c-.43-.23-.86-.46-1.31-.74s-1-.61-1.54-1l-1-.77-.92-.72c-.79-.63-1.52-1.23-2.42-1.91l-.71-.52c-.5-.36-.9-.68-1.31-1l-.51-.36a11,11,0,0,0-2-1l.92-.84.47-.43.52-.48-2.92-1.07-3-1.08h0l2-1.27-5.38-2-2.51-.91h0l2.55-1.83h0l-3-.79-4.58-1.21,1.74-1.76h0l-3.16-.7-.47-.1-1.67-.37-2-.44,2.11-1.59h0l-1.68-.26-5.79-.91h0l1.14-1,1.09-1-8.11-2,1-1.18c-2.33-.7-4.5-.94-6.86-1.65l.09-.22h0l.47-1.18c-1.41-.07-2.82-.35-4.28-.55q.48,1.72.87,3.48A72.19,72.19,0,0,1,322,421.57c0,.61,0,1.2,0,1.81q0,1.72-.16,3.41l.52.38.47.34,2.94,2.14.12-.72.11-.69.24-1.47,5.52,4.76c.08-.67.14-1.15.21-1.75l.08-.64h0l.73.55,2.15,1.61,2.9,2.17.06-.68.11-1.27.08-.9h0l1.63,1.23,4.89,3.68c0-1.3-.05-2.07-.08-3.15h0l1.8,1,5.33,2.95.06-1c0-.33,0-.66.06-1h0l2.66,1.45,2.67,1.45h0l.16-.82.14-.73.09-.46c1.65.43,3.12.76,4.5,1l.43.09c1,.2,2,.37,2.93.54,3.06.54,6,1,10.12,2.08h0c-.85-.5-1.52-.86-2.12-1.18Zm-73.45-81.77a18.76,18.76,0,0,0,2.05-1q.5-.28,1-.58a20.2,20.2,0,0,0,1.85-1.31,18.25,18.25,0,0,0,1.63-1.46c8.24-8.35,16.07-17,28.27-20.91a.83.83,0,0,0,.4-.4c.12-.19.23-.42.37-.61l-1.1-1.12-1.18-1.21h0l3.51-1.58,7-3.17,12.88-5.81,5.52-2.49-1.31-.37-2.37-.67-1.92-.54-1.28-.36-2.13-.6c4.89-3.73,9.41-7.15,13.82-10.54l3.15-2.43a4.57,4.57,0,0,0,.53-.5,7.48,7.48,0,0,0,.5-.61,4,4,0,0,0,.35-.54.9.9,0,0,0,.08-.19.13.13,0,0,0,0-.11,7.51,7.51,0,0,1-1.25-1.72,3.19,3.19,0,0,1-.19-.47,2.05,2.05,0,0,1-.09-.55,1.5,1.5,0,0,1,.06-.48,1.7,1.7,0,0,1,.52-.76,3.08,3.08,0,0,1,.41-.3,6.39,6.39,0,0,1,1-.5c.55-.22,1.15-.41,1.7-.6a6.14,6.14,0,0,0,1.4-.64c3.15-2.19,6.89-3.67,10.33-5.53a1.48,1.48,0,0,0,.55-.65l.21-.43a4.41,4.41,0,0,1,.22-.42h0l-1-.43-2-.87-1.06-.47-1.56-.69h0l6.91-3.67,3.95-2.09,1.5-.8,4-2.13-4.45-3.46h0c.26.17.35.17.34.1a1.35,1.35,0,0,0-.19-.39,1.35,1.35,0,0,1-.19-.39s0-.06.07,0a1.07,1.07,0,0,1,.27.14,13.44,13.44,0,0,1,2.73-2.4,20.87,20.87,0,0,1,2.05-1.2c.71-.37,1.43-.71,2.17-1l1.11-.5c.74-.33,1.48-.67,2.22-1s1.47-.75,2.18-1.18c.31-.19.61-.39.91-.59a15.74,15.74,0,0,0,3.09-2.74,9.13,9.13,0,0,1-3.79-2.29l-.17-.16c-.43-.4-.82-.78-1.18-1.08a4.26,4.26,0,0,0-.77-.53,1.91,1.91,0,0,0-.38-.18h0l1.71-1.44,2.9-2.44.6-.51,8.65-7.28,4.76-4h0l-4.59-1.18-3.29-.84-1.33-.34h0l4.55-3.28,13-9.41h0l-2.76-.73-2.59-.68-1.9-.5,12.2-10.14,4.16-3.46-2.24-.4-1-.18-1.73-.31-2.28-.41L429.63,204l4.25-3.42,13.36-10.75-3.79-.45-1.13-.14L440,189l-2.22-.26h0l4.25-4.65,4.12-4.51,7.61-8.33h0L451,171l-1.7-.19-1.8-.2-1-.11,6.13-6.76,5.93-6.54h0l-2-.59L451,155h0q.63-.77,1.28-1.51c.57-.66,1.15-1.3,1.72-1.93,1.14-1.26,2.25-2.48,3.24-3.71.5-.62,1-1.24,1.4-1.87a17.8,17.8,0,0,0,1.43-2.43c.76-1.6,1.31-2.84,1.76-3.9,1.35-3.18,1.79-4.75,4.06-9.55,1.24-2.62,2.45-5.18,3.69-7.71.82-1.68,1.66-3.36,2.53-5q.65-1.25,1.33-2.5c.9-1.67,1.84-3.34,2.84-5h0q-.73.38-1.41.8a25.28,25.28,0,0,0-2.24,1.55,53.5,53.5,0,0,0-5.68,5.32l-.84.85a15.51,15.51,0,0,1-4.18,3.24c-.51.29-1.12.63-1.91,1.13-1.06.67-2.46,1.61-4.44,3.09-1.23.91-2.38,1.73-3.49,2.51l-2.18,1.52c-1.07.75-2.13,1.49-3.2,2.29s-2.16,1.65-3.31,2.6c-.76.64-1.55,1.32-2.37,2.07s-1.67,1.56-2.57,2.46l-1.38,1.4c-.3.31-.58.64-.87,1-.68.81-1.34,1.69-2.17,2.67l-2.21-2.89-2.26-3-4.79,7.38L420,153.11h0l-.53-.94-.67-1.18-2-3.57L404.1,167.07l-1.19-1.83-1.16-1.78-2.06-3.18-.47-.72h0L398,162.1l-1.23,2.47-2.39,4.81-4.75,9.54-1.3-1.43-2.35-2.59-1.21-1.34-2,4.55-3.88,8.66-1.9,4.25-.16.35-1.25-1.27-1.15-1.17-1.14-1.16L372,186.52l-1.78,4.83-3.45,9.35-1,2.66-.77,2.09-.77-1-.72-.91-2-2.55-2.11-2.69-.83,2-3.67,9c-1.45,3.55-2.85,7-4.27,10.45,0,0-.1.05-.22.06l-.39,0-.9-1-1.66-1.81-.17-.19-1-1.06-2.47,4.54-2.39,4.4-4.74,8.74-1.8-.72-2.76-1.11-3.34,16.06L326.32,246l-2.45-1.78h0L322.72,249l-1.65,6.9-1.63,6.81-1.87-.81-1.37-.59-2.48,5.07-5,10.24-2.58,5.29h0l-1.2-1.69-1.11-1.57-2.35-3.32L299.15,283l-6.75,22.5-1.77-1-3.27-1.83-1.67-.94c-1.38,4.75-2.56,9.52-3.76,14.25-.48,1.89-1,3.78-1.47,5.66-.76,2.82-1.55,5.62-2.44,8.39-.59,1.85-1.23,3.68-1.92,5.5a79.64,79.64,0,0,1-4.93,10.67l-.21.38-.57,1.05c-.55,1-1.29,2.42-2.15,4l-.09.17a71.58,71.58,0,0,1,20.14,8.73,53.94,53.94,0,0,1,9.54-4.79Q298.36,355.65,298.89,355.44ZM271,339.26l1.3-2.29,1.17-2,1.32-2.24,1.17-2,1.43-2.4a4.39,4.39,0,0,1-.87-.15,7.7,7.7,0,0,1-2.22-1.11,12.66,12.66,0,0,0-1.69-1.07,1.42,1.42,0,0,0-.45-.12c4.72-11.45,9.31-23.64,14.16-35.42-1.65.09-3.11,0-4.53,0-.71,0-1.4-.06-2.09-.07s-1.39,0-2.1,0c2.09-5.38,4.13-10.7,6.19-16.06s4.14-10.78,6.3-16.35c-3.28,1.22-5.75,2-8.16,2.91l-1,.38h0l1.93-7.65c1.4-5.56,2.78-11.05,4.2-16.63-1.31.07-2.59.1-4.53.2l6.58-14.62,2.22-4.94h0l-3.4.22-3.32.22,7.91-16.39-3.08-.45-1.29-.19-.8-.12.12-.78,2.2-14.73.77-5.19h0l-.93.21-4.2.93,4.11-18,1.42-6.23-7.12,2.67-2.53.95,3.15-9.69,1.26-3.86,2.45-7.53h0l-1.63.4-2,.48-1.81.45-2,.49h0l2.78-11.47,0-.16.92-3.78,1-4,.31-1.26h0l-2,.72-5.83,2.13h0L279,118l3.17-16.93h0l-1.71.69-5.12,2.08-2.26.92.58-6.25.57-6.1,1.14-12.24-1.72.93-1,.54-3.08,1.67-.93.5h0l.63-7.11.38-4.31L270,67.5l.18-2L262,67.8h0l.73-18a7.85,7.85,0,0,1-2.32-2.08,20.34,20.34,0,0,1-2.9-6.8L257,39.07c-.34-1.19-.66-2.33-1-3.47-.46-1.7-.88-3.38-1.23-5.14-.12-.59-.22-1.19-.32-1.8s-.19-1.24-.27-1.88c-.64-5.11-1.45-10.19-2.18-15.29q-.38,1.11-.69,2.21a61.28,61.28,0,0,0-1.46,6.58c-.49,2.9-.83,5.79-1.18,8.67-.17,1.34-.34,2.63-.54,3.88a36.33,36.33,0,0,1-2.29,8.47c-.16.37-.32.75-.49,1.12s-.36.74-.55,1.12A28.83,28.83,0,0,1,243,46.46c-.42.6-.81,1.1-1.16,1.53a11.16,11.16,0,0,1-1.77,1.78h0c0,.14,0,.33,0,.55s0,.48,0,.77c0,.58,0,1.29,0,2.08s0,1.67.05,2.6,0,1.89.05,2.87,0,2,0,2.89,0,1.84,0,2.67,0,1.57,0,2.2,0,1.14,0,1.49L234.93,66l-2.06-.72.68,9.33.33,4.56.34,4.65h0l-2.59-1.44-4-2.24,1.16,12.48,1.13,12.24-2.33-1L223.08,102l-2.36-1,3.47,17.86.94,4.82-1.05-.39-1.93-.71-2.79-1-2.07-.76,1.13,4.72.16.67.79,3.28.31,1.27.76,3.17.92,3.84.94,3.91-1-.28-1-.27-2.72-.74L216.2,140l-1.39-.38h0l2.29,6.95,1.23,3.72,0,.14,3.42,10.4-3.88-1.43-1.18-.44-4.7-1.73h0l4.34,18.51,1.38,5.87-5.34-1.51h0l.84,5.36.82,5.23,1.63,10.4h0a1.19,1.19,0,0,1-.87-.37,4,4,0,0,1-.3-.29c-.2-.21-.41-.47-.62-.74l-.65-.86a13.87,13.87,0,0,0-1-1.24,3.94,3.94,0,0,0-.94-.74,1.93,1.93,0,0,0-.44-.18l-.13,0a1.41,1.41,0,0,0-.38,0,50.78,50.78,0,0,0,4.43,7.69,18.65,18.65,0,0,0,1.47,1.77,10.65,10.65,0,0,0,2,1.7h-6.61c.66,3.42,1.3,6.17,1.94,8.46l.27,1c.15.52.31,1,.46,1.48l.16.48c.49,1.48,1,2.73,1.48,3.85l.17.38.37.8.36.74c.36.73.72,1.43,1.09,2.12l.55,1c.64,1.22,1.29,2.49,1.94,4H215.8c.2,1.63.4,3.11.6,4.47.13.91.27,1.76.4,2.56s.26,1.55.4,2.26.26,1.37.39,2l.2.91c.13.59.26,1.14.39,1.67s.26,1,.39,1.49c.37,1.33.74,2.47,1.11,3.55l.12.34.49,1.39.12.34c.57,1.62,1.14,3.29,1.72,5.49-.24-.09-.48-.15-.72-.22l-.56-.15c-.62-.15-1.24-.27-1.89-.37s-1.48-.22-2.28-.35a24.62,24.62,0,0,1-2.55-.57c-.45-.13-.93-.28-1.42-.46q1.66,4.2,3.26,8.35t3.18,8.27c2.11,5.5,4.2,11,6.37,16.45-1-.08-1.82-.13-2.62-.17-1.19-.05-2.24-.08-3.26-.1-.68,0-1.34,0-2-.08l-1-.07,3.63,8.8c3.6,8.74,7.11,17.31,10.6,25.75a2,2,0,0,0-1.05.83c-.28.34-.57.76-.88,1.2s-.63.9-1,1.33l-.34.41a6.25,6.25,0,0,1-.62.63l-.08.07a2.36,2.36,0,0,1-1.13.56c.57,1,1.27,2.19,2.07,3.63l.83,1.51c1.91,3.5,4.25,8,6.59,13,.59,1.27,1.18,2.6,1.77,3.94h0l.76-.14a71.91,71.91,0,0,1,27.06.48q.83-1.72,1.67-3.37t1.64-3.16q.82-1.54,1.61-3C270.19,340.78,270.61,340,271,339.26Z"/></svg>